<?xml version="1.0"?>
<svg width="64" height="64" xmlns="http://www.w3.org/2000/svg" xmlns:svg="http://www.w3.org/2000/svg">
 <radialGradient cx="32" cy="32.5" gradientTransform="matrix(1 0 0 -1 0 64)" gradientUnits="userSpaceOnUse" id="TGwjmZMm2W~B4yrgup6jda" r="31.26">
  <stop offset="0" stop-color="#efdcb1"/>
  <stop offset="0" stop-color="#f2e0bb"/>
  <stop offset="0.01" stop-color="#f2e0bc"/>
  <stop offset="0.36" stop-color="#f9edd2"/>
  <stop offset="0.7" stop-color="#fef4df"/>
  <stop offset="1" stop-color="#fff7e4"/>
 </radialGradient>
 <radialGradient cx="18.51" cy="66.29" gradientTransform="matrix(.6435 -.7654 .5056 .4251 -26.92 52.282)" gradientUnits="userSpaceOnUse" id="TGwjmZMm2W~B4yrgup6jdb" r="69.65">
  <stop offset="0.07" stop-color="#eacc7b"/>
  <stop offset="0.18" stop-color="#ecaa59"/>
  <stop offset="0.31" stop-color="#ef802e"/>
  <stop offset="0.36" stop-color="#ef6d3a"/>
  <stop offset="0.46" stop-color="#f04b50"/>
  <stop offset="0.52" stop-color="#f03e58"/>
  <stop offset="0.69" stop-color="#db359e"/>
  <stop offset="0.72" stop-color="#ce37a4"/>
  <stop offset="0.79" stop-color="#ac3cb4"/>
  <stop offset="0.88" stop-color="#7544cf"/>
  <stop offset="0.98" stop-color="#2b4ff2"/>
 </radialGradient>
 <g class="layer">
  <title>Layer 1</title>
  <path d="m45,57l-26,0c-5.5,0 -10,-4.5 -10,-10l0,-26c0,-5.5 4.5,-10 10,-10l26,0c5.5,0 10,4.5 10,10l0,26c0,5.5 -4.5,10 -10,10z" fill="url(#TGwjmZMm2W~B4yrgup6jdb)" id="svg_2"/>
  <path d="m32,20c4.6,0 5.1,0 6.9,0.1c1.7,0.1 2.6,0.4 3.2,0.6c0.8,0.3 1.4,0.7 2,1.3c0.6,0.6 1,1.2 1.3,2c0.2,0.6 0.5,1.5 0.6,3.2c0,1.7 0,2.2 0,6.8s0,5.1 -0.1,6.9c-0.1,1.7 -0.4,2.6 -0.6,3.2c-0.3,0.8 -0.7,1.4 -1.3,2c-0.6,0.6 -1.2,1 -2,1.3c-0.6,0.2 -1.5,0.5 -3.2,0.6c-1.7,0 -2.2,0 -6.8,0s-5.1,0 -6.9,-0.1c-1.7,-0.1 -2.6,-0.4 -3.2,-0.6c-0.8,-0.3 -1.4,-0.7 -2,-1.3c-0.6,-0.6 -1,-1.2 -1.3,-2c-0.2,-0.6 -0.5,-1.5 -0.6,-3.2c0,-1.7 0,-2.2 0,-6.8s0,-5.1 0.1,-6.9c0.1,-1.7 0.4,-2.6 0.6,-3.2c0.3,-0.8 0.7,-1.4 1.3,-2c0.6,-0.6 1.2,-1 2,-1.3c0.6,-0.2 1.5,-0.5 3.2,-0.6c1.7,0 2.2,0 6.8,0m0,-3c-4.6,0 -5.2,0 -7,0.1c-1.8,0.1 -3,0.4 -4.1,0.8c-1.1,0.4 -2.1,1 -3,2s-1.5,1.9 -2,3c-0.4,1.1 -0.7,2.3 -0.8,4.1c-0.1,1.8 -0.1,2.4 -0.1,7s0,5.2 0.1,7c0.1,1.8 0.4,3 0.8,4.1c0.4,1.1 1,2.1 2,3c0.9,0.9 1.9,1.5 3,2c1.1,0.4 2.3,0.7 4.1,0.8c1.8,0.1 2.4,0.1 7,0.1s5.2,0 7,-0.1c1.8,-0.1 3,-0.4 4.1,-0.8c1.1,-0.4 2.1,-1 3,-2c0.9,-0.9 1.5,-1.9 2,-3c0.4,-1.1 0.7,-2.3 0.8,-4.1c0.1,-1.8 0.1,-2.4 0.1,-7s0,-5.2 -0.1,-7c-0.1,-1.8 -0.4,-3 -0.8,-4.1c-0.4,-1.1 -1,-2.1 -2,-3s-1.9,-1.5 -3,-2c-1.1,-0.4 -2.3,-0.7 -4.1,-0.8c-1.8,-0.1 -2.4,-0.1 -7,-0.1l0,0z" fill="#fff" id="svg_3"/>
  <path d="m32,25c-5,0 -9,4 -9,9s4,9 9,9s9,-4 9,-9s-4,-9 -9,-9zm0,15c-3.3,0 -6,-2.7 -6,-6s2.7,-6 6,-6s6,2.7 6,6s-2.7,6 -6,6z" fill="#fff" id="svg_4"/>
  <circle cx="41" cy="25" fill="#fff" id="svg_5" r="2"/>
 </g>
</svg>